<svg width="16" height="16" viewBox="0 0 16 16" fill="none" xmlns="http://www.w3.org/2000/svg">
<mask id="path-1-inside-1_0_594" fill="white">
<path fill-rule="evenodd" clip-rule="evenodd" d="M5.25973 5.79352C5.07228 5.98097 5.07228 6.28489 5.25973 6.47234C5.44719 6.65979 5.7511 6.65979 5.93856 6.47234L7.99915 4.41175L10.0597 6.47234C10.2472 6.65979 10.5511 6.65979 10.7386 6.47234C10.926 6.28489 10.926 5.98097 10.7386 5.79352L8.33856 3.39352C8.24853 3.3035 8.12644 3.25293 7.99915 3.25293C7.87184 3.25293 7.74975 3.3035 7.65973 3.39352L5.25973 5.79352ZM10.7386 10.2057C10.926 10.0182 10.926 9.71431 10.7386 9.52685C10.5511 9.3394 10.2472 9.3394 10.0597 9.52685L7.99915 11.5874L5.93856 9.52685C5.7511 9.3394 5.44719 9.3394 5.25973 9.52685C5.07228 9.71431 5.07228 10.0182 5.25973 10.2057L7.65973 12.6057C7.84719 12.7931 8.1511 12.7931 8.33856 12.6057L10.7386 10.2057Z"/>
</mask>
<path fill-rule="evenodd" clip-rule="evenodd" d="M5.25973 5.79352C5.07228 5.98097 5.07228 6.28489 5.25973 6.47234C5.44719 6.65979 5.7511 6.65979 5.93856 6.47234L7.99915 4.41175L10.0597 6.47234C10.2472 6.65979 10.5511 6.65979 10.7386 6.47234C10.926 6.28489 10.926 5.98097 10.7386 5.79352L8.33856 3.39352C8.24853 3.3035 8.12644 3.25293 7.99915 3.25293C7.87184 3.25293 7.74975 3.3035 7.65973 3.39352L5.25973 5.79352ZM10.7386 10.2057C10.926 10.0182 10.926 9.71431 10.7386 9.52685C10.5511 9.3394 10.2472 9.3394 10.0597 9.52685L7.99915 11.5874L5.93856 9.52685C5.7511 9.3394 5.44719 9.3394 5.25973 9.52685C5.07228 9.71431 5.07228 10.0182 5.25973 10.2057L7.65973 12.6057C7.84719 12.7931 8.1511 12.7931 8.33856 12.6057L10.7386 10.2057Z" fill="#1B3824"/>
<path d="M5.25973 5.79352L4.31928 4.85306H4.31928L5.25973 5.79352ZM5.25973 6.47234L4.31928 7.4128L4.31931 7.41282L5.25973 6.47234ZM5.93856 6.47234L6.87898 7.41282L6.87901 7.41279L5.93856 6.47234ZM7.99915 4.41175L8.9396 3.4713L7.99915 2.53084L7.05869 3.4713L7.99915 4.41175ZM10.0597 6.47234L9.11928 7.41279L9.11931 7.41282L10.0597 6.47234ZM10.7386 6.47234L11.679 7.41285L11.6791 7.41269L10.7386 6.47234ZM10.7386 5.79352L11.6791 4.85317L11.679 4.85306L10.7386 5.79352ZM8.33856 3.39352L9.27901 2.45306L9.27896 2.45301L8.33856 3.39352ZM7.65973 3.39352L8.60018 4.33397L7.65973 3.39352ZM10.7386 10.2057L11.679 11.1461L11.6791 11.146L10.7386 10.2057ZM10.7386 9.52685L11.6791 8.5865L11.679 8.58634L10.7386 9.52685ZM10.0597 9.52685L9.11931 8.58637L9.11928 8.5864L10.0597 9.52685ZM7.99915 11.5874L7.05869 12.5279L7.99915 13.4684L8.9396 12.5279L7.99915 11.5874ZM5.93856 9.52685L6.87901 8.5864L6.87898 8.58637L5.93856 9.52685ZM5.25973 9.52685L4.31931 8.58637L4.31928 8.5864L5.25973 9.52685ZM5.25973 10.2057L6.20019 9.26523L6.20018 9.26522L5.25973 10.2057ZM7.65973 12.6057L6.71928 13.5461L6.71939 13.5462L7.65973 12.6057ZM8.33856 12.6057L9.2789 13.5462L9.27901 13.5461L8.33856 12.6057ZM4.31928 4.85306C3.61243 5.55992 3.61243 6.70594 4.31928 7.4128L6.20018 5.53189C6.53213 5.86383 6.53213 6.40203 6.20018 6.73397L4.31928 4.85306ZM4.31931 7.41282C5.02615 8.11963 6.17214 8.11963 6.87898 7.41282L4.99813 5.53186C5.33007 5.19995 5.86822 5.19995 6.20016 5.53186L4.31931 7.41282ZM6.87901 7.41279L8.9396 5.3522L7.05869 3.4713L4.9981 5.53189L6.87901 7.41279ZM7.05869 5.3522L9.11928 7.41279L11.0002 5.53189L8.9396 3.4713L7.05869 5.3522ZM9.11931 7.41282C9.82617 8.11964 10.9721 8.11961 11.679 7.41285L9.79817 5.53184C10.1301 5.19997 10.6682 5.19993 11.0002 5.53186L9.11931 7.41282ZM11.6791 7.41269C12.3858 6.70586 12.3858 5.56 11.6791 4.85317L9.79801 6.73386C9.46617 6.40194 9.46617 5.86391 9.79801 5.532L11.6791 7.41269ZM11.679 4.85306L9.27901 2.45306L7.39811 4.33397L9.79812 6.73397L11.679 4.85306ZM9.27896 2.45301C8.93954 2.11363 8.4792 1.92293 7.99915 1.92293V4.58293C7.77369 4.58293 7.55752 4.49337 7.39816 4.33402L9.27896 2.45301ZM7.99915 1.92293C7.51911 1.92293 7.05873 2.11362 6.71928 2.45306L8.60018 4.33397C8.44077 4.49339 8.22456 4.58293 7.99915 4.58293V1.92293ZM6.71928 2.45306L4.31928 4.85306L6.20018 6.73397L8.60018 4.33397L6.71928 2.45306ZM11.6791 11.146C12.3858 10.4392 12.3858 9.29333 11.6791 8.5865L9.79801 10.4672C9.46617 10.1353 9.46617 9.59725 9.79801 9.26533L11.6791 11.146ZM11.679 8.58634C10.9721 7.87959 9.82617 7.87955 9.11931 8.58637L11.0002 10.4673C10.6682 10.7993 10.1301 10.7992 9.79817 10.4674L11.679 8.58634ZM9.11928 8.5864L7.05869 10.647L8.9396 12.5279L11.0002 10.4673L9.11928 8.5864ZM8.9396 10.647L6.87901 8.5864L4.99811 10.4673L7.05869 12.5279L8.9396 10.647ZM6.87898 8.58637C6.17214 7.87956 5.02615 7.87956 4.31931 8.58637L6.20016 10.4673C5.86822 10.7992 5.33007 10.7992 4.99813 10.4673L6.87898 8.58637ZM4.31928 8.5864C3.61243 9.29325 3.61243 10.4393 4.31928 11.1461L6.20018 9.26522C6.53213 9.59717 6.53213 10.1354 6.20018 10.4673L4.31928 8.5864ZM4.31928 11.1461L6.71928 13.5461L8.60019 11.6652L6.20019 9.26523L4.31928 11.1461ZM6.71939 13.5462C7.42622 14.2529 8.57208 14.2529 9.2789 13.5462L7.39821 11.6651C7.73013 11.3333 8.26816 11.3333 8.60008 11.6651L6.71939 13.5462ZM9.27901 13.5461L11.679 11.1461L9.79812 9.26522L7.39811 11.6652L9.27901 13.5461Z" fill="#1B3824" mask="url(#path-1-inside-1_0_594)"/>
</svg>
