<svg width="16" height="16" viewBox="0 0 16 16" fill="none" xmlns="http://www.w3.org/2000/svg">
<path d="M6.66602 8.88867C6.66602 8.682 6.66602 8.57867 6.68868 8.494C6.71898 8.38098 6.77848 8.27793 6.86121 8.1952C6.94395 8.11246 7.047 8.05296 7.16002 8.02267C7.24468 8 7.34802 8 7.55468 8H8.44402C8.65068 8 8.75402 8 8.83868 8.02267C8.9517 8.05296 9.05475 8.11246 9.13749 8.1952C9.22022 8.27793 9.27972 8.38098 9.31002 8.494C9.33268 8.57867 9.33268 8.682 9.33268 8.88867V9.33333C9.33268 9.68696 9.19221 10.0261 8.94216 10.2761C8.69211 10.5262 8.35297 10.6667 7.99935 10.6667C7.64573 10.6667 7.30659 10.5262 7.05654 10.2761C6.80649 10.0261 6.66602 9.68696 6.66602 9.33333V8.88867Z" stroke="white" stroke-width="1.25" stroke-linecap="round" stroke-linejoin="round"/>
<path d="M9.26613 9.00065H10.0548C10.9108 9.00065 11.3388 9.00065 11.7035 8.92332C12.7581 8.69998 13.6188 8.01465 13.9955 7.09798C14.1255 6.78065 14.1788 6.39798 14.2848 5.63132C14.3248 5.34332 14.3448 5.19932 14.3255 5.08198C14.2695 4.73932 13.9948 4.45798 13.6255 4.36598C13.4975 4.33398 13.3368 4.33398 13.0155 4.33398H2.98346C2.66213 4.33398 2.50079 4.33398 2.37413 4.36598C2.00413 4.45798 1.72946 4.73932 1.67346 5.08198C1.65413 5.19932 1.67413 5.34332 1.71413 5.63132C1.82079 6.39798 1.87346 6.78065 2.00346 7.09798C2.38013 8.01465 3.24079 8.69998 4.29546 8.92332C4.66013 9.00065 5.08879 9.00065 5.94413 9.00065H6.73279" stroke="white" stroke-width="1.25" stroke-linecap="round" stroke-linejoin="round"/>
<path d="M2.33203 7.66699V9.00033C2.33203 11.5143 2.33203 12.7717 3.06936 13.5523C3.8067 14.333 4.9947 14.3337 7.36936 14.3337H8.62803C11.0027 14.3337 12.19 14.3337 12.928 13.5523C13.6654 12.7717 13.6654 11.5143 13.6654 9.00033V7.66699M10.332 4.33366L10.2807 4.09833C10.024 2.92499 9.89536 2.33833 9.59003 2.00233C9.2847 1.66699 8.8787 1.66699 8.0667 1.66699H7.9307C7.1187 1.66699 6.7127 1.66699 6.40736 2.00233C6.10203 2.33833 5.97403 2.92499 5.7167 4.09833L5.66536 4.33366" stroke="white" stroke-width="1.25" stroke-linecap="round" stroke-linejoin="round"/>
</svg>
