<svg width="38" height="38" viewBox="0 0 38 38" fill="none" xmlns="http://www.w3.org/2000/svg">
<path d="M7.91609 8.7084C7.91609 7.23869 8.49993 5.82917 9.53918 4.78992C10.5784 3.75067 11.9879 3.16683 13.4577 3.16683H18.9992V14.25H13.4577C11.9879 14.25 10.5784 13.6661 9.53918 12.6269C8.49993 11.5876 7.91609 10.1781 7.91609 8.7084Z" stroke="white" stroke-width="1.25" stroke-linecap="round" stroke-linejoin="round"/>
<path d="M18.999 3.16683H24.5406C25.2683 3.16683 25.9889 3.31017 26.6612 3.58866C27.3336 3.86715 27.9445 4.27534 28.4591 4.78992C28.9736 5.3045 29.3818 5.9154 29.6603 6.58774C29.9388 7.26007 30.0821 7.98067 30.0821 8.7084C30.0821 9.43613 29.9388 10.1567 29.6603 10.8291C29.3818 11.5014 28.9736 12.1123 28.4591 12.6269C27.9445 13.1415 27.3336 13.5497 26.6612 13.8281C25.9889 14.1066 25.2683 14.25 24.5406 14.25H18.999V3.16683Z" stroke="white" stroke-width="1.25" stroke-linecap="round" stroke-linejoin="round"/>
<path d="M18.999 19.7913C18.999 19.0636 19.1423 18.343 19.4208 17.6707C19.6993 16.9983 20.1075 16.3874 20.6221 15.8728C21.1367 15.3583 21.7476 14.9501 22.4199 14.6716C23.0922 14.3931 23.8128 14.2498 24.5406 14.2498C25.2683 14.2498 25.9889 14.3931 26.6612 14.6716C27.3336 14.9501 27.9445 15.3583 28.4591 15.8728C28.9736 16.3874 29.3818 16.9983 29.6603 17.6707C29.9388 18.343 30.0821 19.0636 30.0821 19.7913C30.0821 20.5191 29.9388 21.2397 29.6603 21.912C29.3818 22.5843 28.9736 23.1952 28.4591 23.7098C27.9445 24.2244 27.3336 24.6326 26.6612 24.9111C25.9889 25.1896 25.2683 25.3329 24.5406 25.3329C23.8128 25.3329 23.0922 25.1896 22.4199 24.9111C21.7476 24.6326 21.1367 24.2244 20.6221 23.7098C20.1075 23.1952 19.6993 22.5843 19.4208 21.912C19.1423 21.2397 18.999 20.5191 18.999 19.7913Z" stroke="white" stroke-width="1.25" stroke-linecap="round" stroke-linejoin="round"/>
<path d="M7.91609 30.8742C7.91609 29.4045 8.49993 27.995 9.53918 26.9558C10.5784 25.9165 11.9879 25.3327 13.4577 25.3327H18.9992V30.8742C18.9992 32.344 18.4154 33.7535 17.3761 34.7927C16.3369 35.832 14.9274 36.4158 13.4577 36.4158C11.9879 36.4158 10.5784 35.832 9.53918 34.7927C8.49993 33.7535 7.91609 32.344 7.91609 30.8742Z" stroke="white" stroke-width="1.25" stroke-linecap="round" stroke-linejoin="round"/>
<path d="M7.91609 19.7913C7.91609 18.3216 8.49993 16.9121 9.53918 15.8728C10.5784 14.8336 11.9879 14.2498 13.4577 14.2498H18.9992V25.3329H13.4577C11.9879 25.3329 10.5784 24.749 9.53918 23.7098C8.49993 22.6706 7.91609 21.261 7.91609 19.7913Z" stroke="white" stroke-width="1.25" stroke-linecap="round" stroke-linejoin="round"/>
</svg>
