<svg width="38" height="38" viewBox="0 0 38 38" fill="none" xmlns="http://www.w3.org/2000/svg">
<path d="M9.03469 3.48783L9.03469 3.48782C9.1558 3.21299 9.42777 3.03563 9.72809 3.03563H29.133C29.5514 3.03563 29.8907 3.3749 29.8907 3.79334V13.9334C29.8907 14.3518 29.5514 14.6911 29.133 14.6911H21.8756H20.7202L21.5001 15.5436L28.8304 23.555L29.2059 23.2115L28.8305 23.555C29.0332 23.7767 29.086 24.0971 28.9649 24.372C28.8437 24.647 28.5719 24.8243 28.2716 24.8243H20.2664H19.7575V25.3332V34.1997C19.7575 34.506 19.573 34.7823 19.2897 34.8997C19.0065 35.017 18.6806 34.9522 18.464 34.7356L8.33086 24.6023L8.33084 24.6023C8.18876 24.4602 8.10892 24.2675 8.10892 24.0665V13.9334C8.10892 13.5149 8.44817 13.1757 8.86664 13.1757H16.1253H17.2802L16.5009 12.3233L9.16889 4.30465L9.16887 4.30463C8.96623 4.08304 8.91359 3.76264 9.03469 3.48783ZM19.1824 13.0102L19.3337 13.1757H19.5579H27.8663H28.3752V12.6667V5.05999V4.55107H27.8663H12.6026H11.4477L12.227 5.40341L19.1824 13.0102ZM18.8174 14.8565L18.6661 14.6911H18.4419H10.1333H9.62437V15.2V22.7999V23.3088H10.1333H18.9998H25.3956H26.551L25.7711 22.4564L18.8174 14.8565ZM11.9246 24.8243H10.696L11.5647 25.693L17.3733 31.5016L18.2421 32.3704V31.1418V25.3332V24.8243H17.7332H11.9246Z" stroke="white"/>
</svg>
