<svg width="32" height="32" viewBox="0 0 32 32" fill="none" xmlns="http://www.w3.org/2000/svg">
<path fill-rule="evenodd" clip-rule="evenodd" d="M3.94584 16.0002C3.94584 15.3884 3.99141 14.7872 4.07935 14.2L20.4019 4.77619C21.0405 5.0269 21.6525 5.33056 22.2326 5.68173L8.04327 13.8739C7.97082 13.9134 7.90283 13.9626 7.84139 14.0213C7.66023 14.1934 7.55644 14.4276 7.54443 14.6702C7.53754 14.8094 7.56084 14.9513 7.61705 15.0858C7.65633 15.1804 7.711 15.2694 7.78042 15.3486C7.83508 15.4113 7.89682 15.4656 7.96374 15.511L15.6266 20.9882L8.26017 25.2412C5.62277 23.0302 3.94584 19.711 3.94584 16.0002ZM17.8519 21.9204C17.8698 21.9108 17.8874 21.9008 17.9048 21.8899L20.9932 20.1068C21.0063 20.0997 21.0192 20.0922 21.0321 20.0844L24.1274 18.2973C24.2456 18.2327 24.3521 18.1421 24.4374 18.0268C24.7531 17.6009 24.664 16.9996 24.2382 16.6838L16.6985 11.0939L23.9269 6.92058C26.4553 9.13007 28.0525 12.3786 28.0525 16.0002C28.0525 16.7158 27.99 17.417 27.8706 18.0984L11.8792 27.331C11.2235 27.0925 10.5943 26.7987 9.99734 26.4552L17.8519 21.9204ZM17.4531 19.9337L10.2746 14.8027L11.7521 13.9497L18.7854 19.1644L17.4531 19.9337ZM13.5646 12.9033L14.8861 12.1403L21.9194 17.355L20.5978 18.1181L13.5646 12.9033ZM17.7737 4.07652L4.78349 11.5764C6.54729 7.1082 10.904 3.94682 15.9992 3.94682C16.6021 3.94682 17.1946 3.99106 17.7737 4.07652ZM14.6058 27.9737C15.063 28.0264 15.5279 28.0535 15.9992 28.0535C20.9584 28.0535 25.218 25.0585 27.0682 20.7786L14.6058 27.9737ZM15.9992 1.81348C8.16408 1.81348 1.8125 8.16506 1.8125 16.0002C1.8125 23.8353 8.16408 30.1869 15.9992 30.1869C23.8343 30.1869 30.1859 23.8353 30.1859 16.0002C30.1859 8.16506 23.8343 1.81348 15.9992 1.81348Z" fill="#2F583F"/>
</svg>
