<svg width="16" height="16" viewBox="0 0 16 16" fill="none" xmlns="http://www.w3.org/2000/svg">
<path d="M12.5554 13.2026L12.5553 13.2026L12.273 13.485L11.9353 13.2721L11.9353 13.2721L11.9352 13.272L10.9633 12.6594L10.7554 12.5283C10.6881 12.5694 10.6198 12.6089 10.5505 12.647C10.2147 12.8317 9.85663 12.9811 9.48131 13.0901C9.40571 13.1121 9.32941 13.1324 9.25246 13.1511L9.19813 13.3907L8.94426 14.5105L8.94426 14.5105L8.85596 14.9H8.45663H7.54235H7.14301L7.05472 14.5105L7.05471 14.5105L6.65811 14.6004M12.5554 13.2026L3.44387 2.79812L3.1563 2.51056M12.5554 13.2026L12.843 13.4902M12.5554 13.2026L12.5554 13.2026L12.843 13.4902M6.65811 14.6004L7.05471 14.5105L6.80076 13.3903L6.74644 13.1507C6.66951 13.132 6.59324 13.1117 6.51768 13.0897C6.14269 12.9807 5.78492 12.8313 5.44938 12.6468C5.38011 12.6087 5.31178 12.5691 5.24445 12.528L5.03651 12.6591L4.06455 13.2718L4.28141 13.6159M6.65811 14.6004L6.40416 13.4802C6.00017 13.3628 5.61476 13.2019 5.2534 13.0032L4.28141 13.6159M6.65811 14.6004C6.75176 15.0134 7.11884 15.3067 7.54235 15.3067H8.45663C8.88013 15.3067 9.24722 15.0134 9.34085 14.6004L9.59472 13.4806C9.99905 13.3632 10.3848 13.2022 10.7465 13.0034L11.7184 13.6161C12.0766 13.8419 12.5435 13.7896 12.843 13.4902M4.28141 13.6159L4.06453 13.2718L3.72674 13.4848L3.4444 13.2024L3.15681 13.49M4.28141 13.6159C3.92315 13.8417 3.45627 13.7894 3.15681 13.49M3.15681 13.49L3.44438 13.2024L3.44437 13.2024L2.79792 12.5559L2.5103 12.8435M3.15681 13.49L2.5103 12.8435M2.5103 12.8435L2.79789 12.5559L2.79786 12.5559L2.51548 12.2735L2.72838 11.9358L2.72841 11.9358L2.72845 11.9357L3.34112 10.9638L3.47219 10.7559C3.43114 10.6886 3.39154 10.6203 3.35344 10.551C3.16877 10.2152 3.01936 9.85724 2.91027 9.482C2.8883 9.40644 2.86797 9.33017 2.84931 9.25325L2.60968 9.19893L1.48947 8.94497L1.10002 8.85667V8.45734V7.54306V7.14372L1.48947 7.05543L2.60955 6.8015L2.84921 6.74717C2.86786 6.67024 2.88819 6.59397 2.91015 6.5184C3.01917 6.14327 3.1685 5.78536 3.35306 5.4497C3.39114 5.38043 3.43073 5.31211 3.47178 5.24478L3.34073 5.0369L2.72794 4.06481L2.72794 4.0648L2.72794 4.0648L2.51498 3.72699L2.79736 3.44462L2.79736 3.44462L3.44386 2.79813L3.1563 2.51056M2.5103 12.8435C2.21085 12.544 2.15858 12.0771 2.38443 11.7189L2.99711 10.747C2.79824 10.3854 2.63729 9.99977 2.51977 9.59554L1.39956 9.34157C0.986542 9.24793 0.693359 8.88085 0.693359 8.45734V7.54306C0.693359 7.11956 0.986542 6.75246 1.39956 6.65883L2.51964 6.4049C2.63709 6.00077 2.79794 5.61524 2.99672 5.25376L2.38393 4.28166C2.15808 3.9234 2.21035 3.45652 2.5098 3.15706M3.1563 2.51056L2.5098 3.15706M3.1563 2.51056C3.45577 2.2111 3.92265 2.15884 4.28091 2.38468L5.25265 2.99724L2.5098 3.15706M2.5098 3.15706L14.6004 9.34157L13.4805 9.59546C13.363 9.99993 13.2019 10.3858 13.0029 10.7475L13.6154 11.7191C13.8412 12.0773 13.7889 12.5442 13.4895 12.8437M12.843 13.4902L13.4895 12.8437M13.4895 12.8437L13.2019 12.5562L13.2713 11.936M13.4895 12.8437L13.2019 12.5562L13.4843 12.2739L13.2713 11.936M13.2713 11.936V11.936ZM3.50985 2.86412L2.86336 3.51062C2.72904 3.64493 2.7056 3.85434 2.8069 4.01502L2.8069 4.01503L2.8069 4.01503L3.41969 4.98712L3.52662 5.15676C3.56845 5.09107 3.61169 5.02637 3.65628 4.96269L4.06582 5.24953M3.50985 2.86412L12.4894 13.1367C12.4894 13.1367 12.4894 13.1367 12.4894 13.1367C12.355 13.271 12.1456 13.2943 11.9851 13.1931L11.985 13.1931L11.985 13.1931L11.0131 12.5804L10.8434 12.4735C10.9091 12.4316 10.9738 12.3884 11.0375 12.3438L10.7506 11.9343M3.50985 2.86412C3.50985 2.86411 3.50985 2.86411 3.50986 2.86411C3.64418 2.7298 3.85358 2.70636 4.01427 2.80765C4.01428 2.80765 4.01428 2.80765 4.01428 2.80766L3.50985 2.86412ZM4.06582 5.24953L3.64285 5.51617L3.52544 5.32992L3.43484 5.49468C3.25353 5.82442 3.10685 6.17599 2.99977 6.54444L2.94732 6.72493L3.16218 6.67622L3.27273 7.16385M4.06582 5.24953C3.67235 5.81132 3.39614 6.46127 3.27273 7.16385M4.06582 5.24953L3.15091 3.79817L3.79742 3.15168L12.2018 12.8491M3.27273 7.16385L2.78027 7.07734C2.79379 7.00037 2.80897 6.92397 2.82577 6.84819L2.63019 6.89253L1.51011 7.14646C1.32486 7.18846 1.19336 7.35311 1.19336 7.54306V8.45734C1.19336 8.64729 1.32486 8.81195 1.51012 8.85395L2.63032 9.10791L2.82587 9.15225C2.80906 9.07647 2.79387 9.00008 2.78035 8.92312L3.2728 8.83657M3.27273 7.16385L1.60002 7.54306V8.45734L3.2728 8.83657M3.2728 8.83657L3.16225 9.3242L2.94742 9.27549L2.99989 9.45595C3.10704 9.8245 3.2538 10.1762 3.43522 10.506L3.52585 10.6708L3.64331 10.4845L4.06627 10.7511M3.2728 8.83657C3.3963 9.53925 3.67264 10.1893 4.06627 10.7511M4.06627 10.7511L3.65677 11.038C3.61215 10.9743 3.5689 10.9096 3.52705 10.8439L3.42009 11.0136L2.80744 11.9855L2.8074 11.9855L2.80737 11.9856C2.70616 12.1461 2.72949 12.3555 2.86383 12.4899C2.86385 12.4899 2.86387 12.49 2.8639 12.49L3.51034 13.1364C3.64465 13.2707 3.85408 13.2942 4.01478 13.1929C4.01479 13.1929 4.01479 13.1929 4.0148 13.1929L4.98677 12.5802L5.1565 12.4732C5.09078 12.4314 5.02605 12.3881 4.96235 12.3435L5.24924 11.934M4.06627 10.7511L3.15141 12.2023L3.79792 12.8488L5.24924 11.934M5.24924 11.934L5.51587 12.3569L5.3295 12.4744L5.49433 12.5651C5.82398 12.7463 6.17544 12.893 6.54373 13.0001L6.72418 13.0525L6.6755 12.8378L7.16313 12.7272M5.24924 11.934C5.8109 12.3275 6.46069 12.6037 7.16313 12.7272M7.16313 12.7272L7.07653 13.2197C6.99959 13.2062 6.92322 13.191 6.84747 13.1742L6.89179 13.3697L7.14574 14.4899C7.14574 14.4899 7.14574 14.4899 7.14575 14.4899C7.18777 14.6752 7.35244 14.8067 7.54235 14.8067H8.45663C8.64653 14.8067 8.8112 14.6752 8.85322 14.4899C8.85322 14.4899 8.85322 14.4899 8.85323 14.4899L9.10709 13.3701L9.15143 13.1745C9.07564 13.1913 8.99924 13.2065 8.92227 13.22L8.83579 12.7276M7.16313 12.7272L7.54235 14.4H8.45663L8.83579 12.7276M8.83579 12.7276L9.32341 12.8381L9.27472 13.0529L9.45526 13.0005C9.82384 12.8934 10.1756 12.7466 10.5056 12.5652L10.6703 12.4747L10.484 12.3573L10.7506 11.9343M8.83579 12.7276C9.53857 12.6041 10.1887 12.3279 10.7506 11.9343M10.7506 11.9343L12.2018 12.8491M12.2018 12.8491L12.8483 12.2027L11.9337 10.7516L12.2018 12.8491ZM14.4 7.54306V8.45734L12.7276 7.16391L14.4 7.54306ZM12.2023 3.15145L12.8489 3.79795L10.7514 4.06616L12.2023 3.15145ZM7.54235 1.60003H8.45663H7.54235Z" fill="#1B3824" stroke="#1B3824"/>
</svg>
