<svg width="500" height="400" viewBox="0 0 500 400" fill="none" xmlns="http://www.w3.org/2000/svg">
  <rect width="500" height="400" rx="20" fill="#FFFFFF" />
  <circle cx="250" cy="200" r="150" fill="#F5F7F7" />
  <path d="M250 100C194.772 100 150 144.772 150 200C150 255.228 194.772 300 250 300C305.228 300 350 255.228 350 200C350 144.772 305.228 100 250 100ZM250 280C205.817 280 170 244.183 170 200C170 155.817 205.817 120 250 120C294.183 120 330 155.817 330 200C330 244.183 294.183 280 250 280Z" fill="#2F583F" fill-opacity="0.2" />
  
  <!-- Person 1 -->
  <rect x="200" y="180" width="30" height="40" rx="5" fill="#FF9B71" />
  <circle cx="215" cy="160" r="15" fill="#FFB471" />
  <rect x="205" y="220" width="10" height="30" fill="#FFB471" />
  <rect x="215" y="220" width="10" height="30" fill="#FFB471" />
  
  <!-- Person 2 -->
  <rect x="270" y="160" width="30" height="40" rx="5" fill="#76D7C4" />
  <circle cx="285" cy="140" r="15" fill="#A3E4D7" />
  <rect x="275" y="200" width="10" height="30" fill="#A3E4D7" />
  <rect x="285" y="200" width="10" height="30" fill="#A3E4D7" />
  
  <!-- Laptop -->
  <rect x="230" y="190" width="40" height="30" rx="2" fill="#333333" />
  <rect x="235" y="195" width="30" height="20" fill="#FFFFFF" />
  <rect x="220" y="220" width="60" height="5" rx="2" fill="#333333" />
  
  <!-- Document -->
  <rect x="170" y="180" width="25" height="35" rx="2" fill="#FFFFFF" stroke="#333333" />
  <line x1="175" y1="190" x2="190" y2="190" stroke="#333333" />
  <line x1="175" y1="195" x2="185" y2="195" stroke="#333333" />
  <line x1="175" y1="200" x2="190" y2="200" stroke="#333333" />
  <line x1="175" y1="205" x2="187" y2="205" stroke="#333333" />
  
  <!-- Document 2 -->
  <rect x="305" y="170" width="25" height="35" rx="2" fill="#FFFFFF" stroke="#333333" />
  <line x1="310" y1="180" x2="325" y2="180" stroke="#333333" />
  <line x1="310" y1="185" x2="320" y2="185" stroke="#333333" />
  <line x1="310" y1="190" x2="325" y2="190" stroke="#333333" />
  <line x1="310" y1="195" x2="322" y2="195" stroke="#333333" />
  
  <!-- Chart -->
  <rect x="275" y="240" width="35" height="25" rx="2" fill="#FFFFFF" stroke="#333333" />
  <line x1="280" y1="250" x2="280" y2="260" stroke="#FF5733" stroke-width="2" />
  <line x1="285" y1="245" x2="285" y2="260" stroke="#FF5733" stroke-width="2" />
  <line x1="290" y1="248" x2="290" y2="260" stroke="#FF5733" stroke-width="2" />
  <line x1="295" y1="252" x2="295" y2="260" stroke="#FF5733" stroke-width="2" />
  <line x1="300" y1="240" x2="300" y2="260" stroke="#FF5733" stroke-width="2" />
</svg> 