<svg width="38" height="38" viewBox="0 0 38 38" fill="none" xmlns="http://www.w3.org/2000/svg">
<g clip-path="url(#clip0_0_496)">
<path d="M18.239 37.9993C15.014 37.9993 11.9211 36.7182 9.64072 34.4378C7.36032 32.1574 6.0792 29.0645 6.0792 25.8396C6.0792 22.6146 7.36032 19.5217 9.64072 17.2413C11.9211 14.9609 15.014 13.6798 18.239 13.6798V37.9993ZM18.239 0H6.0792V12.1598H18.239V0ZM25.8389 12.1598C27.4514 12.1598 28.9978 11.5192 30.138 10.379C31.2782 9.23883 31.9188 7.69238 31.9188 6.07989C31.9188 4.46741 31.2782 2.92096 30.138 1.78076C28.9978 0.640559 27.4514 0 25.8389 0C24.2264 0 22.6799 0.640559 21.5397 1.78076C20.3995 2.92096 19.759 4.46741 19.759 6.07989C19.759 7.69238 20.3995 9.23883 21.5397 10.379C22.6799 11.5192 24.2264 12.1598 25.8389 12.1598Z" fill="white"/>
</g>
<defs>
<clipPath id="clip0_0_496">
<rect width="37.3333" height="37.3333" fill="white" transform="scale(1.01784)"/>
</clipPath>
</defs>
</svg>
